<?xml version="1.0" encoding="utf-8" standalone="no"?>
<!DOCTYPE svg PUBLIC "-//W3C//DTD SVG 1.1//EN"
  "http://www.w3.org/Graphics/SVG/1.1/DTD/svg11.dtd">
<svg xmlns:xlink="http://www.w3.org/1999/xlink" width="460.8pt" height="345.6pt" viewBox="0 0 460.8 345.6" xmlns="http://www.w3.org/2000/svg" version="1.1">
 <metadata>
  <rdf:RDF xmlns:dc="http://purl.org/dc/elements/1.1/" xmlns:cc="http://creativecommons.org/ns#" xmlns:rdf="http://www.w3.org/1999/02/22-rdf-syntax-ns#">
   <cc:Work>
    <dc:type rdf:resource="http://purl.org/dc/dcmitype/StillImage"/>
    <dc:date>2024-07-24T20:30:19.184779</dc:date>
    <dc:format>image/svg+xml</dc:format>
    <dc:creator>
     <cc:Agent>
      <dc:title>Matplotlib v3.8.2, https://matplotlib.org/</dc:title>
     </cc:Agent>
    </dc:creator>
   </cc:Work>
  </rdf:RDF>
 </metadata>
 <defs>
  <style type="text/css">*{stroke-linejoin: round; stroke-linecap: butt}</style>
 </defs>
 <g id="figure_1">
  <g id="patch_1">
   <path d="M 0 345.6 
L 460.8 345.6 
L 460.8 0 
L 0 0 
z
" style="fill: #ffffff"/>
  </g>
  <g id="axes_1">
   <g id="patch_2">
    <path d="M 33.64 270.29 
L 450 270.29 
L 450 21.72 
L 33.64 21.72 
z
" style="fill: #ffffff"/>
   </g>
   <g id="matplotlib.axis_1">
    <g id="xtick_1">
     <g id="line2d_1">
      <defs>
       <path id="m0c89dfb8be" d="M 0 0 
L 0 3.5 
" style="stroke: #000000; stroke-width: 0.8"/>
      </defs>
      <g>
       <use xlink:href="#m0c89dfb8be" x="52.565455" y="270.29" style="stroke: #000000; stroke-width: 0.8"/>
      </g>
     </g>
     <g id="text_1">
      <!--  5_0_0 -->
      <g transform="translate(55.097486 309.555625) rotate(-90) scale(0.1 -0.1)">
       <defs>
        <path id="DejaVuSans-20" transform="scale(0.015625)"/>
        <path id="DejaVuSans-35" d="M 691 4666 
L 3169 4666 
L 3169 4134 
L 1269 4134 
L 1269 2991 
Q 1406 3038 1543 3061 
Q 1681 3084 1819 3084 
Q 2600 3084 3056 2656 
Q 3513 2228 3513 1497 
Q 3513 744 3044 326 
Q 2575 -91 1722 -91 
Q 1428 -91 1123 -41 
Q 819 9 494 109 
L 494 744 
Q 775 591 1075 516 
Q 1375 441 1709 441 
Q 2250 441 2565 725 
Q 2881 1009 2881 1497 
Q 2881 1984 2565 2268 
Q 2250 2553 1709 2553 
Q 1456 2553 1204 2497 
Q 953 2441 691 2322 
L 691 4666 
z
" transform="scale(0.015625)"/>
        <path id="DejaVuSans-5f" d="M 3263 -1063 
L 3263 -1509 
L -63 -1509 
L -63 -1063 
L 3263 -1063 
z
" transform="scale(0.015625)"/>
        <path id="DejaVuSans-30" d="M 2034 4250 
Q 1547 4250 1301 3770 
Q 1056 3291 1056 2328 
Q 1056 1369 1301 889 
Q 1547 409 2034 409 
Q 2525 409 2770 889 
Q 3016 1369 3016 2328 
Q 3016 3291 2770 3770 
Q 2525 4250 2034 4250 
z
M 2034 4750 
Q 2819 4750 3233 4129 
Q 3647 3509 3647 2328 
Q 3647 1150 3233 529 
Q 2819 -91 2034 -91 
Q 1250 -91 836 529 
Q 422 1150 422 2328 
Q 422 3509 836 4129 
Q 1250 4750 2034 4750 
z
" transform="scale(0.015625)"/>
       </defs>
       <use xlink:href="#DejaVuSans-20"/>
       <use xlink:href="#DejaVuSans-35" x="31.787109"/>
       <use xlink:href="#DejaVuSans-5f" x="95.410156"/>
       <use xlink:href="#DejaVuSans-30" x="145.410156"/>
       <use xlink:href="#DejaVuSans-5f" x="209.033203"/>
       <use xlink:href="#DejaVuSans-30" x="259.033203"/>
      </g>
     </g>
    </g>
    <g id="xtick_2">
     <g id="line2d_2">
      <g>
       <use xlink:href="#m0c89dfb8be" x="61.367992" y="270.29" style="stroke: #000000; stroke-width: 0.8"/>
      </g>
     </g>
     <g id="text_2">
      <!--  5_1_1 -->
      <g transform="translate(63.849242 309.555625) rotate(-90) scale(0.1 -0.1)">
       <defs>
        <path id="DejaVuSans-31" d="M 794 531 
L 1825 531 
L 1825 4091 
L 703 3866 
L 703 4441 
L 1819 4666 
L 2450 4666 
L 2450 531 
L 3481 531 
L 3481 0 
L 794 0 
L 794 531 
z
" transform="scale(0.015625)"/>
       </defs>
       <use xlink:href="#DejaVuSans-20"/>
       <use xlink:href="#DejaVuSans-35" x="31.787109"/>
       <use xlink:href="#DejaVuSans-5f" x="95.410156"/>
       <use xlink:href="#DejaVuSans-31" x="145.410156"/>
       <use xlink:href="#DejaVuSans-5f" x="209.033203"/>
       <use xlink:href="#DejaVuSans-31" x="259.033203"/>
      </g>
     </g>
    </g>
    <g id="xtick_3">
     <g id="line2d_3">
      <g>
       <use xlink:href="#m0c89dfb8be" x="70.170529" y="270.29" style="stroke: #000000; stroke-width: 0.8"/>
      </g>
     </g>
     <g id="text_3">
      <!--  5_1_3 -->
      <g transform="translate(72.70256 309.555625) rotate(-90) scale(0.1 -0.1)">
       <defs>
        <path id="DejaVuSans-33" d="M 2597 2516 
Q 3050 2419 3304 2112 
Q 3559 1806 3559 1356 
Q 3559 666 3084 287 
Q 2609 -91 1734 -91 
Q 1441 -91 1130 -33 
Q 819 25 488 141 
L 488 750 
Q 750 597 1062 519 
Q 1375 441 1716 441 
Q 2309 441 2620 675 
Q 2931 909 2931 1356 
Q 2931 1769 2642 2001 
Q 2353 2234 1838 2234 
L 1294 2234 
L 1294 2753 
L 1863 2753 
Q 2328 2753 2575 2939 
Q 2822 3125 2822 3475 
Q 2822 3834 2567 4026 
Q 2313 4219 1838 4219 
Q 1578 4219 1281 4162 
Q 984 4106 628 3988 
L 628 4550 
Q 988 4650 1302 4700 
Q 1616 4750 1894 4750 
Q 2613 4750 3031 4423 
Q 3450 4097 3450 3541 
Q 3450 3153 3228 2886 
Q 3006 2619 2597 2516 
z
" transform="scale(0.015625)"/>
       </defs>
       <use xlink:href="#DejaVuSans-20"/>
       <use xlink:href="#DejaVuSans-35" x="31.787109"/>
       <use xlink:href="#DejaVuSans-5f" x="95.410156"/>
       <use xlink:href="#DejaVuSans-31" x="145.410156"/>
       <use xlink:href="#DejaVuSans-5f" x="209.033203"/>
       <use xlink:href="#DejaVuSans-33" x="259.033203"/>
      </g>
     </g>
    </g>
    <g id="xtick_4">
     <g id="line2d_4">
      <g>
       <use xlink:href="#m0c89dfb8be" x="78.973066" y="270.29" style="stroke: #000000; stroke-width: 0.8"/>
      </g>
     </g>
     <g id="text_4">
      <!--  5_1_5 -->
      <g transform="translate(81.454316 309.555625) rotate(-90) scale(0.1 -0.1)">
       <use xlink:href="#DejaVuSans-20"/>
       <use xlink:href="#DejaVuSans-35" x="31.787109"/>
       <use xlink:href="#DejaVuSans-5f" x="95.410156"/>
       <use xlink:href="#DejaVuSans-31" x="145.410156"/>
       <use xlink:href="#DejaVuSans-5f" x="209.033203"/>
       <use xlink:href="#DejaVuSans-35" x="259.033203"/>
      </g>
     </g>
    </g>
    <g id="xtick_5">
     <g id="line2d_5">
      <g>
       <use xlink:href="#m0c89dfb8be" x="87.775603" y="270.29" style="stroke: #000000; stroke-width: 0.8"/>
      </g>
     </g>
     <g id="text_5">
      <!--  5_1_10 -->
      <g transform="translate(90.307634 315.918125) rotate(-90) scale(0.1 -0.1)">
       <use xlink:href="#DejaVuSans-20"/>
       <use xlink:href="#DejaVuSans-35" x="31.787109"/>
       <use xlink:href="#DejaVuSans-5f" x="95.410156"/>
       <use xlink:href="#DejaVuSans-31" x="145.410156"/>
       <use xlink:href="#DejaVuSans-5f" x="209.033203"/>
       <use xlink:href="#DejaVuSans-31" x="259.033203"/>
       <use xlink:href="#DejaVuSans-30" x="322.65625"/>
      </g>
     </g>
    </g>
    <g id="xtick_6">
     <g id="line2d_6">
      <g>
       <use xlink:href="#m0c89dfb8be" x="96.57814" y="270.29" style="stroke: #000000; stroke-width: 0.8"/>
      </g>
     </g>
     <g id="text_6">
      <!--  5_1_25 -->
      <g transform="translate(99.110171 315.918125) rotate(-90) scale(0.1 -0.1)">
       <defs>
        <path id="DejaVuSans-32" d="M 1228 531 
L 3431 531 
L 3431 0 
L 469 0 
L 469 531 
Q 828 903 1448 1529 
Q 2069 2156 2228 2338 
Q 2531 2678 2651 2914 
Q 2772 3150 2772 3378 
Q 2772 3750 2511 3984 
Q 2250 4219 1831 4219 
Q 1534 4219 1204 4116 
Q 875 4013 500 3803 
L 500 4441 
Q 881 4594 1212 4672 
Q 1544 4750 1819 4750 
Q 2544 4750 2975 4387 
Q 3406 4025 3406 3419 
Q 3406 3131 3298 2873 
Q 3191 2616 2906 2266 
Q 2828 2175 2409 1742 
Q 1991 1309 1228 531 
z
" transform="scale(0.015625)"/>
       </defs>
       <use xlink:href="#DejaVuSans-20"/>
       <use xlink:href="#DejaVuSans-35" x="31.787109"/>
       <use xlink:href="#DejaVuSans-5f" x="95.410156"/>
       <use xlink:href="#DejaVuSans-31" x="145.410156"/>
       <use xlink:href="#DejaVuSans-5f" x="209.033203"/>
       <use xlink:href="#DejaVuSans-32" x="259.033203"/>
       <use xlink:href="#DejaVuSans-35" x="322.65625"/>
      </g>
     </g>
    </g>
    <g id="xtick_7">
     <g id="line2d_7">
      <g>
       <use xlink:href="#m0c89dfb8be" x="105.380677" y="270.29" style="stroke: #000000; stroke-width: 0.8"/>
      </g>
     </g>
     <g id="text_7">
      <!--  5_1_50 -->
      <g transform="translate(107.912708 315.918125) rotate(-90) scale(0.1 -0.1)">
       <use xlink:href="#DejaVuSans-20"/>
       <use xlink:href="#DejaVuSans-35" x="31.787109"/>
       <use xlink:href="#DejaVuSans-5f" x="95.410156"/>
       <use xlink:href="#DejaVuSans-31" x="145.410156"/>
       <use xlink:href="#DejaVuSans-5f" x="209.033203"/>
       <use xlink:href="#DejaVuSans-35" x="259.033203"/>
       <use xlink:href="#DejaVuSans-30" x="322.65625"/>
      </g>
     </g>
    </g>
    <g id="xtick_8">
     <g id="line2d_8">
      <g>
       <use xlink:href="#m0c89dfb8be" x="114.183214" y="270.29" style="stroke: #000000; stroke-width: 0.8"/>
      </g>
     </g>
     <g id="text_8">
      <!--  5_1_100 -->
      <g transform="translate(116.715245 322.280625) rotate(-90) scale(0.1 -0.1)">
       <use xlink:href="#DejaVuSans-20"/>
       <use xlink:href="#DejaVuSans-35" x="31.787109"/>
       <use xlink:href="#DejaVuSans-5f" x="95.410156"/>
       <use xlink:href="#DejaVuSans-31" x="145.410156"/>
       <use xlink:href="#DejaVuSans-5f" x="209.033203"/>
       <use xlink:href="#DejaVuSans-31" x="259.033203"/>
       <use xlink:href="#DejaVuSans-30" x="322.65625"/>
       <use xlink:href="#DejaVuSans-30" x="386.279297"/>
      </g>
     </g>
    </g>
    <g id="xtick_9">
     <g id="line2d_9">
      <g>
       <use xlink:href="#m0c89dfb8be" x="122.985751" y="270.29" style="stroke: #000000; stroke-width: 0.8"/>
      </g>
     </g>
     <g id="text_9">
      <!--  5_3_1 -->
      <g transform="translate(125.517782 309.555625) rotate(-90) scale(0.1 -0.1)">
       <use xlink:href="#DejaVuSans-20"/>
       <use xlink:href="#DejaVuSans-35" x="31.787109"/>
       <use xlink:href="#DejaVuSans-5f" x="95.410156"/>
       <use xlink:href="#DejaVuSans-33" x="145.410156"/>
       <use xlink:href="#DejaVuSans-5f" x="209.033203"/>
       <use xlink:href="#DejaVuSans-31" x="259.033203"/>
      </g>
     </g>
    </g>
    <g id="xtick_10">
     <g id="line2d_10">
      <g>
       <use xlink:href="#m0c89dfb8be" x="131.788288" y="270.29" style="stroke: #000000; stroke-width: 0.8"/>
      </g>
     </g>
     <g id="text_10">
      <!--  5_3_3 -->
      <g transform="translate(134.320319 309.555625) rotate(-90) scale(0.1 -0.1)">
       <use xlink:href="#DejaVuSans-20"/>
       <use xlink:href="#DejaVuSans-35" x="31.787109"/>
       <use xlink:href="#DejaVuSans-5f" x="95.410156"/>
       <use xlink:href="#DejaVuSans-33" x="145.410156"/>
       <use xlink:href="#DejaVuSans-5f" x="209.033203"/>
       <use xlink:href="#DejaVuSans-33" x="259.033203"/>
      </g>
     </g>
    </g>
    <g id="xtick_11">
     <g id="line2d_11">
      <g>
       <use xlink:href="#m0c89dfb8be" x="140.590825" y="270.29" style="stroke: #000000; stroke-width: 0.8"/>
      </g>
     </g>
     <g id="text_11">
      <!--  5_3_5 -->
      <g transform="translate(143.122856 309.555625) rotate(-90) scale(0.1 -0.1)">
       <use xlink:href="#DejaVuSans-20"/>
       <use xlink:href="#DejaVuSans-35" x="31.787109"/>
       <use xlink:href="#DejaVuSans-5f" x="95.410156"/>
       <use xlink:href="#DejaVuSans-33" x="145.410156"/>
       <use xlink:href="#DejaVuSans-5f" x="209.033203"/>
       <use xlink:href="#DejaVuSans-35" x="259.033203"/>
      </g>
     </g>
    </g>
    <g id="xtick_12">
     <g id="line2d_12">
      <g>
       <use xlink:href="#m0c89dfb8be" x="149.393362" y="270.29" style="stroke: #000000; stroke-width: 0.8"/>
      </g>
     </g>
     <g id="text_12">
      <!--  5_3_10 -->
      <g transform="translate(151.925393 315.918125) rotate(-90) scale(0.1 -0.1)">
       <use xlink:href="#DejaVuSans-20"/>
       <use xlink:href="#DejaVuSans-35" x="31.787109"/>
       <use xlink:href="#DejaVuSans-5f" x="95.410156"/>
       <use xlink:href="#DejaVuSans-33" x="145.410156"/>
       <use xlink:href="#DejaVuSans-5f" x="209.033203"/>
       <use xlink:href="#DejaVuSans-31" x="259.033203"/>
       <use xlink:href="#DejaVuSans-30" x="322.65625"/>
      </g>
     </g>
    </g>
    <g id="xtick_13">
     <g id="line2d_13">
      <g>
       <use xlink:href="#m0c89dfb8be" x="158.195899" y="270.29" style="stroke: #000000; stroke-width: 0.8"/>
      </g>
     </g>
     <g id="text_13">
      <!--  5_3_25 -->
      <g transform="translate(160.72793 315.918125) rotate(-90) scale(0.1 -0.1)">
       <use xlink:href="#DejaVuSans-20"/>
       <use xlink:href="#DejaVuSans-35" x="31.787109"/>
       <use xlink:href="#DejaVuSans-5f" x="95.410156"/>
       <use xlink:href="#DejaVuSans-33" x="145.410156"/>
       <use xlink:href="#DejaVuSans-5f" x="209.033203"/>
       <use xlink:href="#DejaVuSans-32" x="259.033203"/>
       <use xlink:href="#DejaVuSans-35" x="322.65625"/>
      </g>
     </g>
    </g>
    <g id="xtick_14">
     <g id="line2d_14">
      <g>
       <use xlink:href="#m0c89dfb8be" x="166.998436" y="270.29" style="stroke: #000000; stroke-width: 0.8"/>
      </g>
     </g>
     <g id="text_14">
      <!--  5_3_50 -->
      <g transform="translate(169.530467 315.918125) rotate(-90) scale(0.1 -0.1)">
       <use xlink:href="#DejaVuSans-20"/>
       <use xlink:href="#DejaVuSans-35" x="31.787109"/>
       <use xlink:href="#DejaVuSans-5f" x="95.410156"/>
       <use xlink:href="#DejaVuSans-33" x="145.410156"/>
       <use xlink:href="#DejaVuSans-5f" x="209.033203"/>
       <use xlink:href="#DejaVuSans-35" x="259.033203"/>
       <use xlink:href="#DejaVuSans-30" x="322.65625"/>
      </g>
     </g>
    </g>
    <g id="xtick_15">
     <g id="line2d_15">
      <g>
       <use xlink:href="#m0c89dfb8be" x="175.800973" y="270.29" style="stroke: #000000; stroke-width: 0.8"/>
      </g>
     </g>
     <g id="text_15">
      <!--  5_3_100 -->
      <g transform="translate(178.333004 322.280625) rotate(-90) scale(0.1 -0.1)">
       <use xlink:href="#DejaVuSans-20"/>
       <use xlink:href="#DejaVuSans-35" x="31.787109"/>
       <use xlink:href="#DejaVuSans-5f" x="95.410156"/>
       <use xlink:href="#DejaVuSans-33" x="145.410156"/>
       <use xlink:href="#DejaVuSans-5f" x="209.033203"/>
       <use xlink:href="#DejaVuSans-31" x="259.033203"/>
       <use xlink:href="#DejaVuSans-30" x="322.65625"/>
       <use xlink:href="#DejaVuSans-30" x="386.279297"/>
      </g>
     </g>
    </g>
    <g id="xtick_16">
     <g id="line2d_16">
      <g>
       <use xlink:href="#m0c89dfb8be" x="184.60351" y="270.29" style="stroke: #000000; stroke-width: 0.8"/>
      </g>
     </g>
     <g id="text_16">
      <!--  5_5_1 -->
      <g transform="translate(187.08476 309.555625) rotate(-90) scale(0.1 -0.1)">
       <use xlink:href="#DejaVuSans-20"/>
       <use xlink:href="#DejaVuSans-35" x="31.787109"/>
       <use xlink:href="#DejaVuSans-5f" x="95.410156"/>
       <use xlink:href="#DejaVuSans-35" x="145.410156"/>
       <use xlink:href="#DejaVuSans-5f" x="209.033203"/>
       <use xlink:href="#DejaVuSans-31" x="259.033203"/>
      </g>
     </g>
    </g>
    <g id="xtick_17">
     <g id="line2d_17">
      <g>
       <use xlink:href="#m0c89dfb8be" x="193.406047" y="270.29" style="stroke: #000000; stroke-width: 0.8"/>
      </g>
     </g>
     <g id="text_17">
      <!--  5_5_3 -->
      <g transform="translate(195.938078 309.555625) rotate(-90) scale(0.1 -0.1)">
       <use xlink:href="#DejaVuSans-20"/>
       <use xlink:href="#DejaVuSans-35" x="31.787109"/>
       <use xlink:href="#DejaVuSans-5f" x="95.410156"/>
       <use xlink:href="#DejaVuSans-35" x="145.410156"/>
       <use xlink:href="#DejaVuSans-5f" x="209.033203"/>
       <use xlink:href="#DejaVuSans-33" x="259.033203"/>
      </g>
     </g>
    </g>
    <g id="xtick_18">
     <g id="line2d_18">
      <g>
       <use xlink:href="#m0c89dfb8be" x="202.208584" y="270.29" style="stroke: #000000; stroke-width: 0.8"/>
      </g>
     </g>
     <g id="text_18">
      <!--  5_5_5 -->
      <g transform="translate(204.689834 309.555625) rotate(-90) scale(0.1 -0.1)">
       <use xlink:href="#DejaVuSans-20"/>
       <use xlink:href="#DejaVuSans-35" x="31.787109"/>
       <use xlink:href="#DejaVuSans-5f" x="95.410156"/>
       <use xlink:href="#DejaVuSans-35" x="145.410156"/>
       <use xlink:href="#DejaVuSans-5f" x="209.033203"/>
       <use xlink:href="#DejaVuSans-35" x="259.033203"/>
      </g>
     </g>
    </g>
    <g id="xtick_19">
     <g id="line2d_19">
      <g>
       <use xlink:href="#m0c89dfb8be" x="211.011121" y="270.29" style="stroke: #000000; stroke-width: 0.8"/>
      </g>
     </g>
     <g id="text_19">
      <!--  5_5_10 -->
      <g transform="translate(213.543152 315.918125) rotate(-90) scale(0.1 -0.1)">
       <use xlink:href="#DejaVuSans-20"/>
       <use xlink:href="#DejaVuSans-35" x="31.787109"/>
       <use xlink:href="#DejaVuSans-5f" x="95.410156"/>
       <use xlink:href="#DejaVuSans-35" x="145.410156"/>
       <use xlink:href="#DejaVuSans-5f" x="209.033203"/>
       <use xlink:href="#DejaVuSans-31" x="259.033203"/>
       <use xlink:href="#DejaVuSans-30" x="322.65625"/>
      </g>
     </g>
    </g>
    <g id="xtick_20">
     <g id="line2d_20">
      <g>
       <use xlink:href="#m0c89dfb8be" x="219.813658" y="270.29" style="stroke: #000000; stroke-width: 0.8"/>
      </g>
     </g>
     <g id="text_20">
      <!--  5_5_25 -->
      <g transform="translate(222.345689 315.918125) rotate(-90) scale(0.1 -0.1)">
       <use xlink:href="#DejaVuSans-20"/>
       <use xlink:href="#DejaVuSans-35" x="31.787109"/>
       <use xlink:href="#DejaVuSans-5f" x="95.410156"/>
       <use xlink:href="#DejaVuSans-35" x="145.410156"/>
       <use xlink:href="#DejaVuSans-5f" x="209.033203"/>
       <use xlink:href="#DejaVuSans-32" x="259.033203"/>
       <use xlink:href="#DejaVuSans-35" x="322.65625"/>
      </g>
     </g>
    </g>
    <g id="xtick_21">
     <g id="line2d_21">
      <g>
       <use xlink:href="#m0c89dfb8be" x="228.616195" y="270.29" style="stroke: #000000; stroke-width: 0.8"/>
      </g>
     </g>
     <g id="text_21">
      <!--  5_5_50 -->
      <g transform="translate(231.148226 315.918125) rotate(-90) scale(0.1 -0.1)">
       <use xlink:href="#DejaVuSans-20"/>
       <use xlink:href="#DejaVuSans-35" x="31.787109"/>
       <use xlink:href="#DejaVuSans-5f" x="95.410156"/>
       <use xlink:href="#DejaVuSans-35" x="145.410156"/>
       <use xlink:href="#DejaVuSans-5f" x="209.033203"/>
       <use xlink:href="#DejaVuSans-35" x="259.033203"/>
       <use xlink:href="#DejaVuSans-30" x="322.65625"/>
      </g>
     </g>
    </g>
    <g id="xtick_22">
     <g id="line2d_22">
      <g>
       <use xlink:href="#m0c89dfb8be" x="237.418732" y="270.29" style="stroke: #000000; stroke-width: 0.8"/>
      </g>
     </g>
     <g id="text_22">
      <!--  5_5_100 -->
      <g transform="translate(239.950763 322.280625) rotate(-90) scale(0.1 -0.1)">
       <use xlink:href="#DejaVuSans-20"/>
       <use xlink:href="#DejaVuSans-35" x="31.787109"/>
       <use xlink:href="#DejaVuSans-5f" x="95.410156"/>
       <use xlink:href="#DejaVuSans-35" x="145.410156"/>
       <use xlink:href="#DejaVuSans-5f" x="209.033203"/>
       <use xlink:href="#DejaVuSans-31" x="259.033203"/>
       <use xlink:href="#DejaVuSans-30" x="322.65625"/>
       <use xlink:href="#DejaVuSans-30" x="386.279297"/>
      </g>
     </g>
    </g>
    <g id="xtick_23">
     <g id="line2d_23">
      <g>
       <use xlink:href="#m0c89dfb8be" x="246.221268" y="270.29" style="stroke: #000000; stroke-width: 0.8"/>
      </g>
     </g>
     <g id="text_23">
      <!--  5_10_1 -->
      <g transform="translate(248.7533 315.918125) rotate(-90) scale(0.1 -0.1)">
       <use xlink:href="#DejaVuSans-20"/>
       <use xlink:href="#DejaVuSans-35" x="31.787109"/>
       <use xlink:href="#DejaVuSans-5f" x="95.410156"/>
       <use xlink:href="#DejaVuSans-31" x="145.410156"/>
       <use xlink:href="#DejaVuSans-30" x="209.033203"/>
       <use xlink:href="#DejaVuSans-5f" x="272.65625"/>
       <use xlink:href="#DejaVuSans-31" x="322.65625"/>
      </g>
     </g>
    </g>
    <g id="xtick_24">
     <g id="line2d_24">
      <g>
       <use xlink:href="#m0c89dfb8be" x="255.023805" y="270.29" style="stroke: #000000; stroke-width: 0.8"/>
      </g>
     </g>
     <g id="text_24">
      <!--  5_10_3 -->
      <g transform="translate(257.555837 315.918125) rotate(-90) scale(0.1 -0.1)">
       <use xlink:href="#DejaVuSans-20"/>
       <use xlink:href="#DejaVuSans-35" x="31.787109"/>
       <use xlink:href="#DejaVuSans-5f" x="95.410156"/>
       <use xlink:href="#DejaVuSans-31" x="145.410156"/>
       <use xlink:href="#DejaVuSans-30" x="209.033203"/>
       <use xlink:href="#DejaVuSans-5f" x="272.65625"/>
       <use xlink:href="#DejaVuSans-33" x="322.65625"/>
      </g>
     </g>
    </g>
    <g id="xtick_25">
     <g id="line2d_25">
      <g>
       <use xlink:href="#m0c89dfb8be" x="263.826342" y="270.29" style="stroke: #000000; stroke-width: 0.8"/>
      </g>
     </g>
     <g id="text_25">
      <!--  5_10_5 -->
      <g transform="translate(266.358374 315.918125) rotate(-90) scale(0.1 -0.1)">
       <use xlink:href="#DejaVuSans-20"/>
       <use xlink:href="#DejaVuSans-35" x="31.787109"/>
       <use xlink:href="#DejaVuSans-5f" x="95.410156"/>
       <use xlink:href="#DejaVuSans-31" x="145.410156"/>
       <use xlink:href="#DejaVuSans-30" x="209.033203"/>
       <use xlink:href="#DejaVuSans-5f" x="272.65625"/>
       <use xlink:href="#DejaVuSans-35" x="322.65625"/>
      </g>
     </g>
    </g>
    <g id="xtick_26">
     <g id="line2d_26">
      <g>
       <use xlink:href="#m0c89dfb8be" x="272.628879" y="270.29" style="stroke: #000000; stroke-width: 0.8"/>
      </g>
     </g>
     <g id="text_26">
      <!--  5_10_10 -->
      <g transform="translate(275.160911 322.280625) rotate(-90) scale(0.1 -0.1)">
       <use xlink:href="#DejaVuSans-20"/>
       <use xlink:href="#DejaVuSans-35" x="31.787109"/>
       <use xlink:href="#DejaVuSans-5f" x="95.410156"/>
       <use xlink:href="#DejaVuSans-31" x="145.410156"/>
       <use xlink:href="#DejaVuSans-30" x="209.033203"/>
       <use xlink:href="#DejaVuSans-5f" x="272.65625"/>
       <use xlink:href="#DejaVuSans-31" x="322.65625"/>
       <use xlink:href="#DejaVuSans-30" x="386.279297"/>
      </g>
     </g>
    </g>
    <g id="xtick_27">
     <g id="line2d_27">
      <g>
       <use xlink:href="#m0c89dfb8be" x="281.431416" y="270.29" style="stroke: #000000; stroke-width: 0.8"/>
      </g>
     </g>
     <g id="text_27">
      <!--  5_10_25 -->
      <g transform="translate(283.963448 322.280625) rotate(-90) scale(0.1 -0.1)">
       <use xlink:href="#DejaVuSans-20"/>
       <use xlink:href="#DejaVuSans-35" x="31.787109"/>
       <use xlink:href="#DejaVuSans-5f" x="95.410156"/>
       <use xlink:href="#DejaVuSans-31" x="145.410156"/>
       <use xlink:href="#DejaVuSans-30" x="209.033203"/>
       <use xlink:href="#DejaVuSans-5f" x="272.65625"/>
       <use xlink:href="#DejaVuSans-32" x="322.65625"/>
       <use xlink:href="#DejaVuSans-35" x="386.279297"/>
      </g>
     </g>
    </g>
    <g id="xtick_28">
     <g id="line2d_28">
      <g>
       <use xlink:href="#m0c89dfb8be" x="290.233953" y="270.29" style="stroke: #000000; stroke-width: 0.8"/>
      </g>
     </g>
     <g id="text_28">
      <!--  5_10_50 -->
      <g transform="translate(292.765985 322.280625) rotate(-90) scale(0.1 -0.1)">
       <use xlink:href="#DejaVuSans-20"/>
       <use xlink:href="#DejaVuSans-35" x="31.787109"/>
       <use xlink:href="#DejaVuSans-5f" x="95.410156"/>
       <use xlink:href="#DejaVuSans-31" x="145.410156"/>
       <use xlink:href="#DejaVuSans-30" x="209.033203"/>
       <use xlink:href="#DejaVuSans-5f" x="272.65625"/>
       <use xlink:href="#DejaVuSans-35" x="322.65625"/>
       <use xlink:href="#DejaVuSans-30" x="386.279297"/>
      </g>
     </g>
    </g>
    <g id="xtick_29">
     <g id="line2d_29">
      <g>
       <use xlink:href="#m0c89dfb8be" x="299.03649" y="270.29" style="stroke: #000000; stroke-width: 0.8"/>
      </g>
     </g>
     <g id="text_29">
      <!--  5_10_100 -->
      <g transform="translate(301.568522 328.643125) rotate(-90) scale(0.1 -0.1)">
       <use xlink:href="#DejaVuSans-20"/>
       <use xlink:href="#DejaVuSans-35" x="31.787109"/>
       <use xlink:href="#DejaVuSans-5f" x="95.410156"/>
       <use xlink:href="#DejaVuSans-31" x="145.410156"/>
       <use xlink:href="#DejaVuSans-30" x="209.033203"/>
       <use xlink:href="#DejaVuSans-5f" x="272.65625"/>
       <use xlink:href="#DejaVuSans-31" x="322.65625"/>
       <use xlink:href="#DejaVuSans-30" x="386.279297"/>
       <use xlink:href="#DejaVuSans-30" x="449.902344"/>
      </g>
     </g>
    </g>
    <g id="xtick_30">
     <g id="line2d_30">
      <g>
       <use xlink:href="#m0c89dfb8be" x="307.839027" y="270.29" style="stroke: #000000; stroke-width: 0.8"/>
      </g>
     </g>
     <g id="text_30">
      <!--  5_25_1 -->
      <g transform="translate(310.371059 315.918125) rotate(-90) scale(0.1 -0.1)">
       <use xlink:href="#DejaVuSans-20"/>
       <use xlink:href="#DejaVuSans-35" x="31.787109"/>
       <use xlink:href="#DejaVuSans-5f" x="95.410156"/>
       <use xlink:href="#DejaVuSans-32" x="145.410156"/>
       <use xlink:href="#DejaVuSans-35" x="209.033203"/>
       <use xlink:href="#DejaVuSans-5f" x="272.65625"/>
       <use xlink:href="#DejaVuSans-31" x="322.65625"/>
      </g>
     </g>
    </g>
    <g id="xtick_31">
     <g id="line2d_31">
      <g>
       <use xlink:href="#m0c89dfb8be" x="316.641564" y="270.29" style="stroke: #000000; stroke-width: 0.8"/>
      </g>
     </g>
     <g id="text_31">
      <!--  5_25_3 -->
      <g transform="translate(319.173596 315.918125) rotate(-90) scale(0.1 -0.1)">
       <use xlink:href="#DejaVuSans-20"/>
       <use xlink:href="#DejaVuSans-35" x="31.787109"/>
       <use xlink:href="#DejaVuSans-5f" x="95.410156"/>
       <use xlink:href="#DejaVuSans-32" x="145.410156"/>
       <use xlink:href="#DejaVuSans-35" x="209.033203"/>
       <use xlink:href="#DejaVuSans-5f" x="272.65625"/>
       <use xlink:href="#DejaVuSans-33" x="322.65625"/>
      </g>
     </g>
    </g>
    <g id="xtick_32">
     <g id="line2d_32">
      <g>
       <use xlink:href="#m0c89dfb8be" x="325.444101" y="270.29" style="stroke: #000000; stroke-width: 0.8"/>
      </g>
     </g>
     <g id="text_32">
      <!--  5_25_5 -->
      <g transform="translate(327.976133 315.918125) rotate(-90) scale(0.1 -0.1)">
       <use xlink:href="#DejaVuSans-20"/>
       <use xlink:href="#DejaVuSans-35" x="31.787109"/>
       <use xlink:href="#DejaVuSans-5f" x="95.410156"/>
       <use xlink:href="#DejaVuSans-32" x="145.410156"/>
       <use xlink:href="#DejaVuSans-35" x="209.033203"/>
       <use xlink:href="#DejaVuSans-5f" x="272.65625"/>
       <use xlink:href="#DejaVuSans-35" x="322.65625"/>
      </g>
     </g>
    </g>
    <g id="xtick_33">
     <g id="line2d_33">
      <g>
       <use xlink:href="#m0c89dfb8be" x="334.246638" y="270.29" style="stroke: #000000; stroke-width: 0.8"/>
      </g>
     </g>
     <g id="text_33">
      <!--  5_25_10 -->
      <g transform="translate(336.77867 322.280625) rotate(-90) scale(0.1 -0.1)">
       <use xlink:href="#DejaVuSans-20"/>
       <use xlink:href="#DejaVuSans-35" x="31.787109"/>
       <use xlink:href="#DejaVuSans-5f" x="95.410156"/>
       <use xlink:href="#DejaVuSans-32" x="145.410156"/>
       <use xlink:href="#DejaVuSans-35" x="209.033203"/>
       <use xlink:href="#DejaVuSans-5f" x="272.65625"/>
       <use xlink:href="#DejaVuSans-31" x="322.65625"/>
       <use xlink:href="#DejaVuSans-30" x="386.279297"/>
      </g>
     </g>
    </g>
    <g id="xtick_34">
     <g id="line2d_34">
      <g>
       <use xlink:href="#m0c89dfb8be" x="343.049175" y="270.29" style="stroke: #000000; stroke-width: 0.8"/>
      </g>
     </g>
     <g id="text_34">
      <!--  5_25_25 -->
      <g transform="translate(345.581207 322.280625) rotate(-90) scale(0.1 -0.1)">
       <use xlink:href="#DejaVuSans-20"/>
       <use xlink:href="#DejaVuSans-35" x="31.787109"/>
       <use xlink:href="#DejaVuSans-5f" x="95.410156"/>
       <use xlink:href="#DejaVuSans-32" x="145.410156"/>
       <use xlink:href="#DejaVuSans-35" x="209.033203"/>
       <use xlink:href="#DejaVuSans-5f" x="272.65625"/>
       <use xlink:href="#DejaVuSans-32" x="322.65625"/>
       <use xlink:href="#DejaVuSans-35" x="386.279297"/>
      </g>
     </g>
    </g>
    <g id="xtick_35">
     <g id="line2d_35">
      <g>
       <use xlink:href="#m0c89dfb8be" x="351.851712" y="270.29" style="stroke: #000000; stroke-width: 0.8"/>
      </g>
     </g>
     <g id="text_35">
      <!--  5_25_50 -->
      <g transform="translate(354.383744 322.280625) rotate(-90) scale(0.1 -0.1)">
       <use xlink:href="#DejaVuSans-20"/>
       <use xlink:href="#DejaVuSans-35" x="31.787109"/>
       <use xlink:href="#DejaVuSans-5f" x="95.410156"/>
       <use xlink:href="#DejaVuSans-32" x="145.410156"/>
       <use xlink:href="#DejaVuSans-35" x="209.033203"/>
       <use xlink:href="#DejaVuSans-5f" x="272.65625"/>
       <use xlink:href="#DejaVuSans-35" x="322.65625"/>
       <use xlink:href="#DejaVuSans-30" x="386.279297"/>
      </g>
     </g>
    </g>
    <g id="xtick_36">
     <g id="line2d_36">
      <g>
       <use xlink:href="#m0c89dfb8be" x="360.654249" y="270.29" style="stroke: #000000; stroke-width: 0.8"/>
      </g>
     </g>
     <g id="text_36">
      <!--  5_25_100 -->
      <g transform="translate(363.186281 328.643125) rotate(-90) scale(0.1 -0.1)">
       <use xlink:href="#DejaVuSans-20"/>
       <use xlink:href="#DejaVuSans-35" x="31.787109"/>
       <use xlink:href="#DejaVuSans-5f" x="95.410156"/>
       <use xlink:href="#DejaVuSans-32" x="145.410156"/>
       <use xlink:href="#DejaVuSans-35" x="209.033203"/>
       <use xlink:href="#DejaVuSans-5f" x="272.65625"/>
       <use xlink:href="#DejaVuSans-31" x="322.65625"/>
       <use xlink:href="#DejaVuSans-30" x="386.279297"/>
       <use xlink:href="#DejaVuSans-30" x="449.902344"/>
      </g>
     </g>
    </g>
    <g id="xtick_37">
     <g id="line2d_37">
      <g>
       <use xlink:href="#m0c89dfb8be" x="369.456786" y="270.29" style="stroke: #000000; stroke-width: 0.8"/>
      </g>
     </g>
     <g id="text_37">
      <!--  5_50_1 -->
      <g transform="translate(371.988818 315.918125) rotate(-90) scale(0.1 -0.1)">
       <use xlink:href="#DejaVuSans-20"/>
       <use xlink:href="#DejaVuSans-35" x="31.787109"/>
       <use xlink:href="#DejaVuSans-5f" x="95.410156"/>
       <use xlink:href="#DejaVuSans-35" x="145.410156"/>
       <use xlink:href="#DejaVuSans-30" x="209.033203"/>
       <use xlink:href="#DejaVuSans-5f" x="272.65625"/>
       <use xlink:href="#DejaVuSans-31" x="322.65625"/>
      </g>
     </g>
    </g>
    <g id="xtick_38">
     <g id="line2d_38">
      <g>
       <use xlink:href="#m0c89dfb8be" x="378.259323" y="270.29" style="stroke: #000000; stroke-width: 0.8"/>
      </g>
     </g>
     <g id="text_38">
      <!--  5_50_3 -->
      <g transform="translate(380.791355 315.918125) rotate(-90) scale(0.1 -0.1)">
       <use xlink:href="#DejaVuSans-20"/>
       <use xlink:href="#DejaVuSans-35" x="31.787109"/>
       <use xlink:href="#DejaVuSans-5f" x="95.410156"/>
       <use xlink:href="#DejaVuSans-35" x="145.410156"/>
       <use xlink:href="#DejaVuSans-30" x="209.033203"/>
       <use xlink:href="#DejaVuSans-5f" x="272.65625"/>
       <use xlink:href="#DejaVuSans-33" x="322.65625"/>
      </g>
     </g>
    </g>
    <g id="xtick_39">
     <g id="line2d_39">
      <g>
       <use xlink:href="#m0c89dfb8be" x="387.06186" y="270.29" style="stroke: #000000; stroke-width: 0.8"/>
      </g>
     </g>
     <g id="text_39">
      <!--  5_50_5 -->
      <g transform="translate(389.593892 315.918125) rotate(-90) scale(0.1 -0.1)">
       <use xlink:href="#DejaVuSans-20"/>
       <use xlink:href="#DejaVuSans-35" x="31.787109"/>
       <use xlink:href="#DejaVuSans-5f" x="95.410156"/>
       <use xlink:href="#DejaVuSans-35" x="145.410156"/>
       <use xlink:href="#DejaVuSans-30" x="209.033203"/>
       <use xlink:href="#DejaVuSans-5f" x="272.65625"/>
       <use xlink:href="#DejaVuSans-35" x="322.65625"/>
      </g>
     </g>
    </g>
    <g id="xtick_40">
     <g id="line2d_40">
      <g>
       <use xlink:href="#m0c89dfb8be" x="395.864397" y="270.29" style="stroke: #000000; stroke-width: 0.8"/>
      </g>
     </g>
     <g id="text_40">
      <!--  5_50_10 -->
      <g transform="translate(398.396429 322.280625) rotate(-90) scale(0.1 -0.1)">
       <use xlink:href="#DejaVuSans-20"/>
       <use xlink:href="#DejaVuSans-35" x="31.787109"/>
       <use xlink:href="#DejaVuSans-5f" x="95.410156"/>
       <use xlink:href="#DejaVuSans-35" x="145.410156"/>
       <use xlink:href="#DejaVuSans-30" x="209.033203"/>
       <use xlink:href="#DejaVuSans-5f" x="272.65625"/>
       <use xlink:href="#DejaVuSans-31" x="322.65625"/>
       <use xlink:href="#DejaVuSans-30" x="386.279297"/>
      </g>
     </g>
    </g>
    <g id="xtick_41">
     <g id="line2d_41">
      <g>
       <use xlink:href="#m0c89dfb8be" x="404.666934" y="270.29" style="stroke: #000000; stroke-width: 0.8"/>
      </g>
     </g>
     <g id="text_41">
      <!--  5_50_25 -->
      <g transform="translate(407.198966 322.280625) rotate(-90) scale(0.1 -0.1)">
       <use xlink:href="#DejaVuSans-20"/>
       <use xlink:href="#DejaVuSans-35" x="31.787109"/>
       <use xlink:href="#DejaVuSans-5f" x="95.410156"/>
       <use xlink:href="#DejaVuSans-35" x="145.410156"/>
       <use xlink:href="#DejaVuSans-30" x="209.033203"/>
       <use xlink:href="#DejaVuSans-5f" x="272.65625"/>
       <use xlink:href="#DejaVuSans-32" x="322.65625"/>
       <use xlink:href="#DejaVuSans-35" x="386.279297"/>
      </g>
     </g>
    </g>
    <g id="xtick_42">
     <g id="line2d_42">
      <g>
       <use xlink:href="#m0c89dfb8be" x="413.469471" y="270.29" style="stroke: #000000; stroke-width: 0.8"/>
      </g>
     </g>
     <g id="text_42">
      <!--  5_50_50 -->
      <g transform="translate(416.001503 322.280625) rotate(-90) scale(0.1 -0.1)">
       <use xlink:href="#DejaVuSans-20"/>
       <use xlink:href="#DejaVuSans-35" x="31.787109"/>
       <use xlink:href="#DejaVuSans-5f" x="95.410156"/>
       <use xlink:href="#DejaVuSans-35" x="145.410156"/>
       <use xlink:href="#DejaVuSans-30" x="209.033203"/>
       <use xlink:href="#DejaVuSans-5f" x="272.65625"/>
       <use xlink:href="#DejaVuSans-35" x="322.65625"/>
       <use xlink:href="#DejaVuSans-30" x="386.279297"/>
      </g>
     </g>
    </g>
    <g id="xtick_43">
     <g id="line2d_43">
      <g>
       <use xlink:href="#m0c89dfb8be" x="422.272008" y="270.29" style="stroke: #000000; stroke-width: 0.8"/>
      </g>
     </g>
     <g id="text_43">
      <!--  5_50_100 -->
      <g transform="translate(424.80404 328.643125) rotate(-90) scale(0.1 -0.1)">
       <use xlink:href="#DejaVuSans-20"/>
       <use xlink:href="#DejaVuSans-35" x="31.787109"/>
       <use xlink:href="#DejaVuSans-5f" x="95.410156"/>
       <use xlink:href="#DejaVuSans-35" x="145.410156"/>
       <use xlink:href="#DejaVuSans-30" x="209.033203"/>
       <use xlink:href="#DejaVuSans-5f" x="272.65625"/>
       <use xlink:href="#DejaVuSans-31" x="322.65625"/>
       <use xlink:href="#DejaVuSans-30" x="386.279297"/>
       <use xlink:href="#DejaVuSans-30" x="449.902344"/>
      </g>
     </g>
    </g>
    <g id="xtick_44">
     <g id="line2d_44">
      <g>
       <use xlink:href="#m0c89dfb8be" x="431.074545" y="270.29" style="stroke: #000000; stroke-width: 0.8"/>
      </g>
     </g>
     <g id="text_44">
      <!--  5_100_100 -->
      <g transform="translate(433.606577 335.005625) rotate(-90) scale(0.1 -0.1)">
       <use xlink:href="#DejaVuSans-20"/>
       <use xlink:href="#DejaVuSans-35" x="31.787109"/>
       <use xlink:href="#DejaVuSans-5f" x="95.410156"/>
       <use xlink:href="#DejaVuSans-31" x="145.410156"/>
       <use xlink:href="#DejaVuSans-30" x="209.033203"/>
       <use xlink:href="#DejaVuSans-30" x="272.65625"/>
       <use xlink:href="#DejaVuSans-5f" x="336.279297"/>
       <use xlink:href="#DejaVuSans-31" x="386.279297"/>
       <use xlink:href="#DejaVuSans-30" x="449.902344"/>
       <use xlink:href="#DejaVuSans-30" x="513.525391"/>
      </g>
     </g>
    </g>
   </g>
   <g id="matplotlib.axis_2">
    <g id="ytick_1">
     <g id="line2d_45">
      <defs>
       <path id="me159211862" d="M 0 0 
L -3.5 0 
" style="stroke: #000000; stroke-width: 0.8"/>
      </defs>
      <g>
       <use xlink:href="#me159211862" x="33.64" y="261.681989" style="stroke: #000000; stroke-width: 0.8"/>
      </g>
     </g>
     <g id="text_45">
      <!-- 0.2 -->
      <g transform="translate(10.736875 265.481208) scale(0.1 -0.1)">
       <defs>
        <path id="DejaVuSans-2e" d="M 684 794 
L 1344 794 
L 1344 0 
L 684 0 
L 684 794 
z
" transform="scale(0.015625)"/>
       </defs>
       <use xlink:href="#DejaVuSans-30"/>
       <use xlink:href="#DejaVuSans-2e" x="63.623047"/>
       <use xlink:href="#DejaVuSans-32" x="95.410156"/>
      </g>
     </g>
    </g>
    <g id="ytick_2">
     <g id="line2d_46">
      <g>
       <use xlink:href="#me159211862" x="33.64" y="215.42501" style="stroke: #000000; stroke-width: 0.8"/>
      </g>
     </g>
     <g id="text_46">
      <!-- 0.4 -->
      <g transform="translate(10.736875 219.224229) scale(0.1 -0.1)">
       <defs>
        <path id="DejaVuSans-34" d="M 2419 4116 
L 825 1625 
L 2419 1625 
L 2419 4116 
z
M 2253 4666 
L 3047 4666 
L 3047 1625 
L 3713 1625 
L 3713 1100 
L 3047 1100 
L 3047 0 
L 2419 0 
L 2419 1100 
L 313 1100 
L 313 1709 
L 2253 4666 
z
" transform="scale(0.015625)"/>
       </defs>
       <use xlink:href="#DejaVuSans-30"/>
       <use xlink:href="#DejaVuSans-2e" x="63.623047"/>
       <use xlink:href="#DejaVuSans-34" x="95.410156"/>
      </g>
     </g>
    </g>
    <g id="ytick_3">
     <g id="line2d_47">
      <g>
       <use xlink:href="#me159211862" x="33.64" y="169.168031" style="stroke: #000000; stroke-width: 0.8"/>
      </g>
     </g>
     <g id="text_47">
      <!-- 0.6 -->
      <g transform="translate(10.736875 172.96725) scale(0.1 -0.1)">
       <defs>
        <path id="DejaVuSans-36" d="M 2113 2584 
Q 1688 2584 1439 2293 
Q 1191 2003 1191 1497 
Q 1191 994 1439 701 
Q 1688 409 2113 409 
Q 2538 409 2786 701 
Q 3034 994 3034 1497 
Q 3034 2003 2786 2293 
Q 2538 2584 2113 2584 
z
M 3366 4563 
L 3366 3988 
Q 3128 4100 2886 4159 
Q 2644 4219 2406 4219 
Q 1781 4219 1451 3797 
Q 1122 3375 1075 2522 
Q 1259 2794 1537 2939 
Q 1816 3084 2150 3084 
Q 2853 3084 3261 2657 
Q 3669 2231 3669 1497 
Q 3669 778 3244 343 
Q 2819 -91 2113 -91 
Q 1303 -91 875 529 
Q 447 1150 447 2328 
Q 447 3434 972 4092 
Q 1497 4750 2381 4750 
Q 2619 4750 2861 4703 
Q 3103 4656 3366 4563 
z
" transform="scale(0.015625)"/>
       </defs>
       <use xlink:href="#DejaVuSans-30"/>
       <use xlink:href="#DejaVuSans-2e" x="63.623047"/>
       <use xlink:href="#DejaVuSans-36" x="95.410156"/>
      </g>
     </g>
    </g>
    <g id="ytick_4">
     <g id="line2d_48">
      <g>
       <use xlink:href="#me159211862" x="33.64" y="122.911053" style="stroke: #000000; stroke-width: 0.8"/>
      </g>
     </g>
     <g id="text_48">
      <!-- 0.8 -->
      <g transform="translate(10.736875 126.710271) scale(0.1 -0.1)">
       <defs>
        <path id="DejaVuSans-38" d="M 2034 2216 
Q 1584 2216 1326 1975 
Q 1069 1734 1069 1313 
Q 1069 891 1326 650 
Q 1584 409 2034 409 
Q 2484 409 2743 651 
Q 3003 894 3003 1313 
Q 3003 1734 2745 1975 
Q 2488 2216 2034 2216 
z
M 1403 2484 
Q 997 2584 770 2862 
Q 544 3141 544 3541 
Q 544 4100 942 4425 
Q 1341 4750 2034 4750 
Q 2731 4750 3128 4425 
Q 3525 4100 3525 3541 
Q 3525 3141 3298 2862 
Q 3072 2584 2669 2484 
Q 3125 2378 3379 2068 
Q 3634 1759 3634 1313 
Q 3634 634 3220 271 
Q 2806 -91 2034 -91 
Q 1263 -91 848 271 
Q 434 634 434 1313 
Q 434 1759 690 2068 
Q 947 2378 1403 2484 
z
M 1172 3481 
Q 1172 3119 1398 2916 
Q 1625 2713 2034 2713 
Q 2441 2713 2670 2916 
Q 2900 3119 2900 3481 
Q 2900 3844 2670 4047 
Q 2441 4250 2034 4250 
Q 1625 4250 1398 4047 
Q 1172 3844 1172 3481 
z
" transform="scale(0.015625)"/>
       </defs>
       <use xlink:href="#DejaVuSans-30"/>
       <use xlink:href="#DejaVuSans-2e" x="63.623047"/>
       <use xlink:href="#DejaVuSans-38" x="95.410156"/>
      </g>
     </g>
    </g>
    <g id="ytick_5">
     <g id="line2d_49">
      <g>
       <use xlink:href="#me159211862" x="33.64" y="76.654074" style="stroke: #000000; stroke-width: 0.8"/>
      </g>
     </g>
     <g id="text_49">
      <!-- 1.0 -->
      <g transform="translate(10.736875 80.453293) scale(0.1 -0.1)">
       <use xlink:href="#DejaVuSans-31"/>
       <use xlink:href="#DejaVuSans-2e" x="63.623047"/>
       <use xlink:href="#DejaVuSans-30" x="95.410156"/>
      </g>
     </g>
    </g>
    <g id="ytick_6">
     <g id="line2d_50">
      <g>
       <use xlink:href="#me159211862" x="33.64" y="30.397095" style="stroke: #000000; stroke-width: 0.8"/>
      </g>
     </g>
     <g id="text_50">
      <!-- 1.2 -->
      <g transform="translate(10.736875 34.196314) scale(0.1 -0.1)">
       <use xlink:href="#DejaVuSans-31"/>
       <use xlink:href="#DejaVuSans-2e" x="63.623047"/>
       <use xlink:href="#DejaVuSans-32" x="95.410156"/>
      </g>
     </g>
    </g>
    <g id="text_51">
     <!-- 1e9 -->
     <g transform="translate(33.64 18.72) scale(0.1 -0.1)">
      <defs>
       <path id="DejaVuSans-65" d="M 3597 1894 
L 3597 1613 
L 953 1613 
Q 991 1019 1311 708 
Q 1631 397 2203 397 
Q 2534 397 2845 478 
Q 3156 559 3463 722 
L 3463 178 
Q 3153 47 2828 -22 
Q 2503 -91 2169 -91 
Q 1331 -91 842 396 
Q 353 884 353 1716 
Q 353 2575 817 3079 
Q 1281 3584 2069 3584 
Q 2775 3584 3186 3129 
Q 3597 2675 3597 1894 
z
M 3022 2063 
Q 3016 2534 2758 2815 
Q 2500 3097 2075 3097 
Q 1594 3097 1305 2825 
Q 1016 2553 972 2059 
L 3022 2063 
z
" transform="scale(0.015625)"/>
       <path id="DejaVuSans-39" d="M 703 97 
L 703 672 
Q 941 559 1184 500 
Q 1428 441 1663 441 
Q 2288 441 2617 861 
Q 2947 1281 2994 2138 
Q 2813 1869 2534 1725 
Q 2256 1581 1919 1581 
Q 1219 1581 811 2004 
Q 403 2428 403 3163 
Q 403 3881 828 4315 
Q 1253 4750 1959 4750 
Q 2769 4750 3195 4129 
Q 3622 3509 3622 2328 
Q 3622 1225 3098 567 
Q 2575 -91 1691 -91 
Q 1453 -91 1209 -44 
Q 966 3 703 97 
z
M 1959 2075 
Q 2384 2075 2632 2365 
Q 2881 2656 2881 3163 
Q 2881 3666 2632 3958 
Q 2384 4250 1959 4250 
Q 1534 4250 1286 3958 
Q 1038 3666 1038 3163 
Q 1038 2656 1286 2365 
Q 1534 2075 1959 2075 
z
" transform="scale(0.015625)"/>
      </defs>
      <use xlink:href="#DejaVuSans-31"/>
      <use xlink:href="#DejaVuSans-65" x="63.623047"/>
      <use xlink:href="#DejaVuSans-39" x="125.146484"/>
     </g>
    </g>
   </g>
   <g id="line2d_51">
    <path d="M 52.565455 258.991364 
L 61.367992 240.308899 
L 70.170529 247.095615 
L 78.973066 239.274615 
L 87.775603 240.497754 
L 96.57814 241.288633 
L 105.380677 240.158596 
L 114.183214 240.556639 
L 122.985751 242.049531 
L 131.788288 235.789418 
L 140.590825 233.86704 
L 149.393362 235.477363 
L 158.195899 234.763334 
L 166.998436 231.784556 
L 175.800973 234.008831 
L 184.60351 231.64116 
L 193.406047 228.015637 
L 202.208584 230.267142 
L 211.011121 229.663201 
L 219.813658 227.178699 
L 228.616195 227.848868 
L 237.418732 225.7075 
L 246.221268 223.003197 
L 255.023805 222.176314 
L 263.826342 218.911729 
L 272.628879 218.703834 
L 281.431416 218.33559 
L 290.233953 216.286245 
L 299.03649 214.834581 
L 307.839027 204.427365 
L 316.641564 200.280266 
L 325.444101 197.373462 
L 334.246638 193.167104 
L 343.049175 192.320903 
L 351.851712 189.142912 
L 360.654249 191.442538 
L 369.456786 188.814761 
L 378.259323 182.953923 
L 387.06186 173.317331 
L 395.864397 160.638592 
L 404.666934 148.136679 
L 413.469471 140.865468 
L 422.272008 152.020606 
L 431.074545 41.573744 
" clip-path="url(#p0be52b42d1)" style="fill: none; stroke: #1f77b4; stroke-width: 1.5; stroke-linecap: square"/>
   </g>
   <g id="line2d_52">
    <path d="M 52.565455 252.805573 
L 61.367992 239.547729 
L 70.170529 243.266425 
L 78.973066 239.839 
L 87.775603 239.86586 
L 96.57814 240.208086 
L 105.380677 238.08326 
L 114.183214 240.003481 
L 122.985751 239.905188 
L 131.788288 237.174502 
L 140.590825 234.8874 
L 149.393362 235.102537 
L 158.195899 235.004661 
L 166.998436 232.00442 
L 175.800973 234.079839 
L 184.60351 233.624947 
L 193.406047 232.164997 
L 202.208584 232.838261 
L 211.011121 230.741909 
L 219.813658 230.724144 
L 228.616195 229.361121 
L 237.418732 229.407123 
L 246.221268 227.838012 
L 255.023805 227.312933 
L 263.826342 223.949671 
L 272.628879 223.016271 
L 281.431416 221.203299 
L 290.233953 219.248254 
L 299.03649 218.516314 
L 307.839027 214.637171 
L 316.641564 208.754564 
L 325.444101 204.73181 
L 334.246638 199.577744 
L 343.049175 192.951516 
L 351.851712 187.305674 
L 360.654249 191.160533 
L 369.456786 192.050949 
L 378.259323 184.939417 
L 387.06186 172.978376 
L 395.864397 161.409812 
L 404.666934 146.363807 
L 413.469471 138.931701 
L 422.272008 152.521513 
L 431.074545 33.018636 
" clip-path="url(#p0be52b42d1)" style="fill: none; stroke: #ff7f0e; stroke-width: 1.5; stroke-linecap: square"/>
   </g>
   <g id="patch_3">
    <path d="M 33.64 270.29 
L 33.64 21.72 
" style="fill: none; stroke: #000000; stroke-width: 0.8; stroke-linejoin: miter; stroke-linecap: square"/>
   </g>
   <g id="patch_4">
    <path d="M 450 270.29 
L 450 21.72 
" style="fill: none; stroke: #000000; stroke-width: 0.8; stroke-linejoin: miter; stroke-linecap: square"/>
   </g>
   <g id="patch_5">
    <path d="M 33.64 270.29 
L 450 270.29 
" style="fill: none; stroke: #000000; stroke-width: 0.8; stroke-linejoin: miter; stroke-linecap: square"/>
   </g>
   <g id="patch_6">
    <path d="M 33.64 21.72 
L 450 21.72 
" style="fill: none; stroke: #000000; stroke-width: 0.8; stroke-linejoin: miter; stroke-linecap: square"/>
   </g>
   <g id="legend_1">
    <g id="patch_7">
     <path d="M 40.64 59.07625 
L 79.0025 59.07625 
Q 81.0025 59.07625 81.0025 57.07625 
L 81.0025 28.72 
Q 81.0025 26.72 79.0025 26.72 
L 40.64 26.72 
Q 38.64 26.72 38.64 28.72 
L 38.64 57.07625 
Q 38.64 59.07625 40.64 59.07625 
z
" style="fill: #ffffff; opacity: 0.8; stroke: #cccccc; stroke-linejoin: miter"/>
    </g>
    <g id="line2d_53">
     <path d="M 42.64 34.818438 
L 52.64 34.818438 
L 62.64 34.818438 
" style="fill: none; stroke: #1f77b4; stroke-width: 1.5; stroke-linecap: square"/>
    </g>
    <g id="text_52">
     <!-- 1 -->
     <g transform="translate(70.64 38.318438) scale(0.1 -0.1)">
      <use xlink:href="#DejaVuSans-31"/>
     </g>
    </g>
    <g id="line2d_54">
     <path d="M 42.64 49.496563 
L 52.64 49.496563 
L 62.64 49.496563 
" style="fill: none; stroke: #ff7f0e; stroke-width: 1.5; stroke-linecap: square"/>
    </g>
    <g id="text_53">
     <!-- 1 -->
     <g transform="translate(70.64 52.996563) scale(0.1 -0.1)">
      <use xlink:href="#DejaVuSans-31"/>
     </g>
    </g>
   </g>
  </g>
 </g>
 <defs>
  <clipPath id="p0be52b42d1">
   <rect x="33.64" y="21.72" width="416.36" height="248.57"/>
  </clipPath>
 </defs>
</svg>
